<?xml version="1.0" encoding="utf-8"?>
<!-- Generator: Adobe Illustrator 16.0.4, SVG Export Plug-In . SVG Version: 6.00 Build 0)  -->
<!DOCTYPE svg PUBLIC "-//W3C//DTD SVG 1.1//EN" "http://www.w3.org/Graphics/SVG/1.1/DTD/svg11.dtd">
<svg version="1.1" xmlns="http://www.w3.org/2000/svg" xmlns:xlink="http://www.w3.org/1999/xlink" x="0px" y="0px" width="792px"
	 height="450.398px" viewBox="0 0 792 450.398" enable-background="new 0 0 792 450.398" xml:space="preserve">
<g id="Layer_2">
	<rect x="-4.57" y="-3.106" fill="#5E95BB" width="802.141" height="459.504"/>
</g>
<g id="Layer_4">
	
		<line opacity="0.3" fill="none" stroke="#8AA6C6" stroke-width="7" stroke-linecap="round" stroke-linejoin="round" stroke-miterlimit="10" stroke-dasharray="1,15,0,0,0,0" x1="652.272" y1="42.099" x2="789.409" y2="42.099"/>
	
		<line opacity="0.3" fill="none" stroke="#8AA6C6" stroke-width="7" stroke-linecap="round" stroke-linejoin="round" stroke-miterlimit="10" stroke-dasharray="1,15,0,0,0,0" x1="531.268" y1="128.625" x2="593.173" y2="66.719"/>
	
		<line fill="none" stroke="#9FB6C5" stroke-width="7" stroke-linecap="round" stroke-linejoin="round" stroke-miterlimit="10" stroke-dasharray="1,15,0,0,0,0" x1="134.213" y1="193.29" x2="269.595" y2="193.29"/>
	
		<circle opacity="0.3" fill="#8AA6C6" stroke="#5E95BB" stroke-width="5" stroke-miterlimit="10" cx="613.491" cy="42.099" r="32.352"/>
	
		<circle opacity="0.3" fill="#8AA6C6" stroke="#5E95BB" stroke-width="5" stroke-miterlimit="10" cx="107.583" cy="201.541" r="11.439"/>
	
		<circle opacity="0.3" fill="#8AA6C6" stroke="#5E95BB" stroke-width="5" stroke-miterlimit="10" cx="511.28" cy="146.955" r="21.143"/>
	
		<line opacity="0.3" fill="none" stroke="#8AA6C6" stroke-width="7" stroke-linecap="round" stroke-linejoin="round" stroke-miterlimit="10" stroke-dasharray="1,15,0,0,0,0" x1="149.967" y1="272.506" x2="90.82" y2="213.359"/>
	
		<circle opacity="0.3" fill="#8AA6C6" stroke="#5E95BB" stroke-width="5" stroke-miterlimit="10" cx="169.479" cy="293.75" r="20.201"/>
	
		<line opacity="0.3" fill="none" stroke="#8AA6C6" stroke-width="7" stroke-linecap="round" stroke-linejoin="round" stroke-miterlimit="10" stroke-dasharray="1,15,0,0,0,0" x1="594.754" y1="239.804" x2="541.54" y2="293.017"/>
	
		<circle opacity="0.3" fill="#8AA6C6" stroke="#5E95BB" stroke-width="5" stroke-miterlimit="10" cx="611.255" cy="222.49" r="18.175"/>
	<ellipse fill="#5E95BB" cx="162.25" cy="295.523" rx="5.5" ry="4.375"/>
	<ellipse fill="#5E95BB" cx="170.375" cy="293.773" rx="8.125" ry="7.125"/>
	<ellipse fill="#5E95BB" cx="178.625" cy="294.398" rx="3.375" ry="3.25"/>
</g>
<g id="Layer_1">
	
		<line fill="none" stroke="#9FB6C5" stroke-width="7" stroke-linecap="round" stroke-linejoin="round" stroke-miterlimit="10" stroke-dasharray="1,15,0,0,0,0" x1="78.759" y1="183.681" x2="78.759" y2="522.398"/>
	
		<line fill="none" stroke="#9FB6C5" stroke-width="7" stroke-linecap="round" stroke-linejoin="round" stroke-miterlimit="10" stroke-dasharray="1,15,0,0,0,0" x1="181.842" y1="96.863" x2="114.92" y2="163.787"/>
	
		<line fill="none" stroke="#9FB6C5" stroke-width="7" stroke-linecap="round" stroke-linejoin="round" stroke-miterlimit="10" stroke-dasharray="1,15,0,0,0,0" x1="522.428" y1="328.398" x2="522.428" y2="500.531"/>
	
		<line fill="none" stroke="#9FB6C5" stroke-width="7" stroke-linecap="round" stroke-linejoin="round" stroke-miterlimit="10" stroke-dasharray="1,15,0,0,0,0" x1="78.759" y1="51.978" x2="78.759" y2="182.403"/>
	<circle fill="#9FB6C5" stroke="#5E95BB" stroke-width="5" stroke-miterlimit="10" cx="78.759" cy="49.247" r="25.402"/>
	<circle fill="#9FB6C5" stroke="#5E95BB" stroke-width="5" stroke-miterlimit="10" cx="296.275" cy="192.58" r="25.402"/>
	<circle fill="#9FB6C5" stroke="#5E95BB" stroke-width="5" stroke-miterlimit="10" cx="207.88" cy="65.518" r="31.469"/>
	<circle fill="#9FB6C5" stroke="#5E95BB" stroke-width="5" stroke-miterlimit="10" cx="522.427" cy="305.527" r="28.312"/>
	<rect x="282.15" y="180.648" fill="#5E95BB" width="28.25" height="16.5"/>
	<rect x="283.435" y="181.898" fill="#9FB6C5" width="25.682" height="13.75"/>
	<polyline fill="#5E95BB" points="310.4,197.148 313.625,200.898 278,200.898 282.15,197.148 	"/>
	<line fill="none" stroke="#9FB6C5" stroke-miterlimit="10" x1="281.125" y1="197.148" x2="311.375" y2="197.148"/>
	<g id="qGdtS3_1_">
		<g>
			<path fill-rule="evenodd" clip-rule="evenodd" fill="#5E95BB" d="M518.298,314.264c0.59-0.546,1.069-1.166,1.231-1.963
				c0.114-0.562,0.184-1.141,0.21-1.715c0.038-0.85,0.024-1.701,0.025-2.553c0.001-3.023-0.008-6.048,0.007-9.073
				c0.003-0.591,0.068-1.186,0.15-1.772c0.131-0.927,0.652-1.646,1.385-2.181c0.905-0.66,1.838-1.289,2.796-1.868
				c1.32-0.798,2.679-1.531,4.014-2.303c0.312-0.181,0.606-0.172,0.917-0.028c0.424,0.197,0.739,0.521,1.016,0.886
				c0.969,1.273,1.418,2.721,1.447,4.31c0.059,3.04-1.041,5.613-3.188,7.73c-0.601,0.591-1.333,1.049-2.005,1.566
				c-0.063,0.049-0.135,0.089-0.246,0.161c0.247,0.057,0.45,0.102,0.651,0.151c1.721,0.42,2.763,1.549,3.343,3.174
				c0.368,1.03,0.556,2.1,0.746,3.171c0.225,1.257,0.46,2.516,1.043,3.671c0.295,0.584,0.701,1.08,1.379,1.219
				c0.306,0.062,0.634,0.011,0.979,0.011c-0.842,1.472-1.665,2.953-2.013,4.672c-2.735-0.377-4.041-2.142-4.605-4.717
				c-1.458,1.457-2.613,3.093-3.844,4.701c-0.095-0.071-0.191-0.143-0.287-0.215c-1.333-1.005-2.839-1.578-4.479-1.85
				c-2.778-0.458-5.271,0.305-7.617,1.73c-0.132,0.08-0.264,0.16-0.409,0.221c1.496-2.794,3.516-5,6.752-5.699
				c3.106-0.672,6.048-0.224,8.732,1.611c0.319-0.319,0.648-0.644,0.971-0.976c0.037-0.039,0.059-0.118,0.051-0.175
				c-0.355-2.675-0.797-5.333-1.766-7.866c-0.228-0.595-0.59-1.137-0.896-1.7c-0.096-0.175-0.232-0.222-0.402-0.086
				c-0.019,0.015-0.044,0.022-0.065,0.035c-0.255,0.143-0.606,0.228-0.739,0.445c-0.135,0.223-0.066,0.576-0.065,0.872
				c0.002,0.861-0.086,1.709-0.289,2.55c-0.301,1.236-1.013,2.141-2.12,2.758C520.222,313.663,519.28,314.002,518.298,314.264z
				 M523.513,306.307c0.025,0.015,0.049,0.029,0.073,0.044c0.41-0.259,0.826-0.508,1.227-0.779c1.817-1.23,2.937-2.893,3.102-5.117
				c0.142-1.91-0.141-3.753-1.018-5.473c-0.245-0.482-0.54-0.944-0.859-1.38c-0.114-0.156-0.378-0.305-0.558-0.288
				c-0.278,0.024-0.577,0.148-0.809,0.312c-0.41,0.29-0.603,0.752-0.765,1.216c-0.332,0.948-0.383,1.938-0.389,2.928
				c-0.014,2.758-0.005,5.516-0.005,8.274C523.513,306.131,523.513,306.219,523.513,306.307z"/>
			<path fill-rule="evenodd" clip-rule="evenodd" fill="#5E95BB" d="M518.776,296.333c-0.122,0.179-0.237,0.349-0.354,0.517
				c-0.641,0.928-0.913,1.968-0.915,3.082c-0.007,3.504,0.008,7.007-0.017,10.511c-0.005,0.604-0.12,1.215-0.256,1.806
				c-0.179,0.785-0.625,1.426-1.225,1.965c-0.964,0.865-2.043,1.564-3.147,2.229c-0.025,0.015-0.055,0.021-0.099,0.039
				c0.199-0.383,0.405-0.735,0.571-1.106c0.302-0.673,0.399-1.396,0.405-2.123c0.015-1.917,0.001-3.834-0.002-5.751
				c0-0.117,0.015-0.24-0.165-0.236c-0.593,0.013-1.192-0.027-1.777,0.045c-0.823,0.103-1.205,0.534-1.336,1.357
				c-0.008,0.046-0.023,0.091-0.047,0.179c-0.271-0.429-0.415-0.86-0.504-1.313c-0.161-0.826-0.186-1.656-0.02-2.483
				c0.217-1.088,0.889-1.676,2.037-1.796c0.295-0.031,0.593-0.048,0.889-0.058s0.593-0.002,0.935-0.002c0-0.062-0.001-0.164,0-0.266
				c0.005-0.775-0.029-1.551,0.128-2.319c0.208-1.013,0.705-1.833,1.524-2.469C516.128,297.578,518.041,296.535,518.776,296.333z"/>
			<path fill-rule="evenodd" clip-rule="evenodd" fill="#5E95BB" d="M521.854,290.775c-0.178,0.454-0.326,0.924-0.54,1.361
				c-0.571,1.168-1.44,2.082-2.506,2.816c-1.042,0.717-2.157,0.816-3.35,0.441c-0.705-0.222-1.423-0.416-2.146-0.571
				c-1.078-0.233-2.055,0.064-2.954,0.667c-0.169,0.114-0.337,0.229-0.53,0.361c0.309-1.906,1.196-3.427,2.773-4.501
				c1.272-0.867,2.619-1.006,4.019-0.277c0.415,0.217,0.84,0.422,1.275,0.593c1.177,0.46,2.279,0.297,3.296-0.447
				c0.205-0.15,0.4-0.314,0.6-0.472C521.813,290.756,521.834,290.765,521.854,290.775z"/>
		</g>
	</g>
</g>
<g id="Layer_3" display="none">
	<rect x="223" y="77.794" display="inline" opacity="0.8" fill="#8AA6C6" width="339" height="194.207"/>
</g>
<g id="Layer_5">
	<path fill="#5E95BB" d="M89.334,61.568c0,1.675-1.358,3.033-3.033,3.033H71.136c-1.675,0-3.034-1.358-3.034-3.033V36.545
		c0-1.675,1.358-3.033,3.034-3.033h15.166c1.675,0,3.033,1.358,3.033,3.033V61.568z"/>
	<path fill="#9FB6C5" d="M87.818,57.78c0,1.743-1.481,3.157-3.309,3.157H72.928c-1.828,0-3.31-1.414-3.31-3.157V38.312
		c0-1.744,1.482-3.157,3.31-3.157h11.581c1.828,0,3.309,1.413,3.309,3.157V57.78z"/>
	<circle fill="#9FB6C5" cx="79.056" cy="62.643" r="1.138"/>
	<path fill="#5E95BB" d="M83.732,53.291c0,0.21-0.169,0.379-0.379,0.379h-9.1c-0.209,0-0.379-0.169-0.379-0.379l0,0
		c0-0.209,0.169-0.379,0.379-0.379h9.1C83.563,52.912,83.732,53.081,83.732,53.291L83.732,53.291z"/>
	<rect x="77.161" y="44.065" fill="#5E95BB" width="3.286" height="3.792"/>
	<rect x="190.819" y="53.006" fill="#5E95BB" width="34.881" height="24.265"/>
	<text transform="matrix(1 0 0 1 194.6104 58.0322)" fill="#8AA6C6" font-family="'MyriadPro-Regular'" font-size="2.8744">def (random code):</text>
	<text transform="matrix(1 0 0 1 197.2642 62.2031)"><tspan x="0" y="0" fill="#8AA6C6" font-family="'MyriadPro-Regular'" font-size="2.8744">if condition: </tspan><tspan x="0" y="3.449" fill="#8AA6C6" font-family="'MyriadPro-Regular'" font-size="2.8744">    eat more pie</tspan><tspan x="0" y="6.898" fill="#8AA6C6" font-family="'MyriadPro-Regular'" font-size="2.8744">else: </tspan><tspan x="0" y="10.348" fill="#8AA6C6" font-family="'MyriadPro-Regular'" font-size="2.8744">    eat less pie</tspan></text>
	<circle fill="#9FB6C5" stroke="#5E95BB" stroke-width="5" stroke-miterlimit="10" cx="78.759" cy="191.195" r="48.151"/>
	<g>
		<g>
			<path fill="#5E95BB" stroke="#5E94BA" stroke-width="4" stroke-miterlimit="10" d="M78.732,184.428
				c0,0-8.165-23.267,18.483-16.36c0,0-7.59-0.846-14.464,5.615C80.389,175.904,80.589,180.147,78.732,184.428z"/>
			<path fill="#5E95BB" stroke="#5E94BA" stroke-width="4" stroke-miterlimit="10" d="M78.679,184.428
				c0,0,8.164-23.267-18.483-16.36c0,0,7.59-0.846,14.464,5.615C77.022,175.904,76.823,180.147,78.679,184.428z"/>
		</g>
		<g opacity="0.8">
			<g>
				<path fill="#5E94BA" d="M67.095,184.69c6.449,0,6.449-10,0-10S60.646,184.69,67.095,184.69L67.095,184.69z"/>
			</g>
		</g>
		<g opacity="0.8">
			<g>
				<path fill="#5E94BA" d="M89.85,184.69c6.449,0,6.449-10,0-10S83.401,184.69,89.85,184.69L89.85,184.69z"/>
			</g>
		</g>
		<g>
			
				<line opacity="0.8" fill="none" stroke="#5E95BB" stroke-width="4" stroke-linecap="round" stroke-linejoin="round" stroke-miterlimit="10" x1="67.163" y1="194.139" x2="67.163" y2="199.455"/>
			
				<line opacity="0.8" fill="none" stroke="#5E95BB" stroke-width="4" stroke-linecap="round" stroke-linejoin="round" stroke-miterlimit="10" x1="74.858" y1="194.139" x2="74.858" y2="199.455"/>
			
				<line opacity="0.8" fill="none" stroke="#5E95BB" stroke-width="4" stroke-linecap="round" stroke-linejoin="round" stroke-miterlimit="10" x1="82.554" y1="194.139" x2="82.554" y2="199.455"/>
			
				<line opacity="0.8" fill="none" stroke="#5E95BB" stroke-width="4" stroke-linecap="round" stroke-linejoin="round" stroke-miterlimit="10" x1="90.249" y1="194.139" x2="90.249" y2="199.455"/>
			
				<line opacity="0.8" fill="none" stroke="#5E95BB" stroke-width="4" stroke-linecap="round" stroke-linejoin="round" stroke-miterlimit="10" x1="74.858" y1="203.939" x2="74.858" y2="209.252"/>
			
				<line opacity="0.8" fill="none" stroke="#5E95BB" stroke-width="4" stroke-linecap="round" stroke-linejoin="round" stroke-miterlimit="10" x1="82.554" y1="203.939" x2="82.554" y2="209.252"/>
		</g>
		<g>
			<path opacity="0.8" fill="#5E95BB" stroke="#5E94BA" stroke-miterlimit="10" d="M59.052,179.358l-5.813,14.449
				c0,0,12.291,23.418,23.252,23.584C76.491,217.391,56.727,204.935,59.052,179.358z"/>
			<path opacity="0.8" fill="#5E95BB" stroke="#5E94BA" stroke-miterlimit="10" d="M98.359,179.358l5.813,14.449
				c0,0-12.291,23.418-23.252,23.584C80.92,217.391,100.685,204.935,98.359,179.358z"/>
		</g>
	</g>
</g>
</svg>
